<svg fill="none" height="53pt" viewBox="0 0 53 53" width="53pt" xmlns="http://www.w3.org/2000/svg"><path d="M2.1 26.5c0-13.491 10.914-24.4 24.4-24.4 13.494 0 24.4 10.907 24.4 24.4 0 13.494-10.906 24.4-24.4 24.4-4.892 0-9.446-1.42-13.249-3.888a1.217 1.217 0 00-1.048-.134l-8.12 2.803 2.478-8.293a1.22 1.22 0 00-.153-1.048C3.651 36.296 2.1 31.587 2.1 26.5z" stroke="#fff" stroke-width="3" stroke-linecap="round" stroke-linejoin="round"/><path d="M17.494 15l3.838 6.335-1.598 1.58a1.054 1.054 0 00-.165 1.267c2.438 4.22 5.326 7.5 9.372 9.281.397.175.86.09 1.17-.214l1.696-1.695L38 35.422c-.686 1.542-1.58 2.46-2.602 2.995-1.184.619-2.632.736-4.283.395-3.302-.685-7.29-3.277-10.541-6.6-3.251-3.321-5.767-7.36-6.407-10.646-.321-1.644-.18-3.059.428-4.18.523-.967 1.41-1.794 2.899-2.386z" fill="#fff" stroke="#fff" stroke-linecap="round" stroke-linejoin="round"/></svg>
